<?xml version="1.0" encoding="UTF-8" standalone="no"?><svg xmlns="http://www.w3.org/2000/svg" fill="#ffffff" height="212.58" viewBox="0 0 201.89 212.58" width="201.89"><g data-name="Layer 2"><g data-name="Layer 1"><path d="M106.63,56.78c.77.72,1.67,1.51,2.51,2.35q21.23,21.23,42.46,42.46c4.06,4.06,5.64,4.07,9.64.09,13.08-13,26.11-26,39.23-39,1.53-1.5,1.88-2.62.79-4.62a115.72,115.72,0,0,0-19.92-27.19,106.26,106.26,0,1,0,19.68,124c1.07-2.08.94-3.31-.73-5-12.92-12.82-25.73-25.74-38.59-38.62-4.08-4.09-6.13-4.08-10.31.09l-41.21,41.14c-1.24,1.25-2.53,2.44-3.52,3.39L57.22,106.48Z"/></g></g></svg>